HIERARCHY
ROOT SpineBase
{
  OFFSET 0.000000 0.000000 0.000000
  CHANNELS 6 Xposition Yposition Zposition Zrotation Xrotation Yrotation
  JOINT SpineMid
  {
    OFFSET 0.000000 29.174191 0.000000
    CHANNELS 3 Zrotation Xrotation Yrotation
    JOINT SpineShoulder
    {
      OFFSET -0.062588 21.654581 -0.753441
      CHANNELS 3 Zrotation Xrotation Yrotation
      JOINT Neck
      {
        OFFSET -0.050626 7.158398 -0.562233
        CHANNELS 3 Zrotation Xrotation Yrotation
        JOINT Head
        {
          OFFSET -1.367452 11.747766 -0.034418
          CHANNELS 3 Zrotation Xrotation Yrotation
          End Site
          {
            OFFSET 0 0 0
          }
        }
      }
      JOINT ShoulderLeft
      {
        OFFSET -16.212812 -1.999553 4.806455
        CHANNELS 3 Zrotation Xrotation Yrotation
        JOINT ElbowLeft
        {
          OFFSET -3.885931 -26.428786 3.564522
          CHANNELS 3 Zrotation Xrotation Yrotation
          JOINT WristLeft
          {
            OFFSET -3.856168 -20.494023 -3.552454
            CHANNELS 3 Zrotation Xrotation Yrotation
            JOINT HandLeft
            {
              OFFSET 0.026136 -6.491897 -2.267474
              CHANNELS 3 Zrotation Xrotation Yrotation
              JOINT HandTipLeft
              {
                OFFSET -1.320511 -6.354035 -1.180576
                CHANNELS 3 Zrotation Xrotation Yrotation
                End Site
                {
                  OFFSET 0 0 0
                }
              }
              JOINT ThumbLeft
              {
                OFFSET -2.343063 -1.076513 -1.493992
                CHANNELS 3 Zrotation Xrotation Yrotation
                End Site
                {
                  OFFSET 0 0 0
                }
              }
            }
          }
        }
      }
      JOINT ShoulderRight
      {
        OFFSET 14.874536 -2.654168 -6.007455
        CHANNELS 3 Zrotation Xrotation Yrotation
        JOINT ElbowRight
        {
          OFFSET 5.731789 -24.214915 -3.116335
          CHANNELS 3 Zrotation Xrotation Yrotation
          JOINT WristRight
          {
            OFFSET -0.238179 -20.249256 -4.670615
            CHANNELS 3 Zrotation Xrotation Yrotation
            JOINT HandRight
            {
              OFFSET -1.295828 -7.757690 -0.941403
              CHANNELS 3 Zrotation Xrotation Yrotation
              JOINT HandTipRight
              {
                OFFSET -1.285717 -5.729990 -2.422414
                CHANNELS 3 Zrotation Xrotation Yrotation
                End Site
                {
                  OFFSET 0 0 0
                }
              }
              JOINT ThumbRight
              {
                OFFSET -3.809101 0.017054 -0.803395
                CHANNELS 3 Zrotation Xrotation Yrotation
                End Site
                {
                  OFFSET 0 0 0
                }
              }
            }
          }
        }
      }
    }
  }
  JOINT HipLeft
  {
    OFFSET -5.952311 0.479467 -1.848705
    CHANNELS 3 Zrotation Xrotation Yrotation
    JOINT KneeLeft
    {
      OFFSET -8.800265 -28.586921 2.299700
      CHANNELS 3 Zrotation Xrotation Yrotation
      JOINT AnkleLeft
      {
        OFFSET -3.049491 -36.950150 5.973656
        CHANNELS 3 Zrotation Xrotation Yrotation
        JOINT FootLeft
        {
          OFFSET -3.115537 -3.946251 -12.551902
          CHANNELS 3 Zrotation Xrotation Yrotation
          End Site
          {
            OFFSET 0 0 0
          }
        }
      }
    }
  }
  JOINT HipRight
  {
    OFFSET 5.313362 0.655276 -5.032409
    CHANNELS 3 Zrotation Xrotation Yrotation
    JOINT KneeRight
    {
      OFFSET 5.568281 -26.955471 1.309774
      CHANNELS 3 Zrotation Xrotation Yrotation
      JOINT AnkleRight
      {
        OFFSET 1.626048 -34.536853 9.918979
        CHANNELS 3 Zrotation Xrotation Yrotation
        JOINT FootRight
        {
          OFFSET -3.918668 -3.352884 -13.592227
          CHANNELS 3 Zrotation Xrotation Yrotation
          End Site
          {
            OFFSET 0 0 0
          }
        }
      }
    }
  }
}
MOTION
Frames: 9
Frame Time: 0.033333
33.338038 77.693956 381.029996 -0.468333 -0.304909 17.637001 0.125574 -0.920267 -17.647460 0.078153 -0.106035 -0.003215 4.526120 -0.335965 -0.198352 0.000000 0.000000 0.000000 -98.993068 16.027324 0.088702 -72.305204 33.784103 125.725993 7.530111 7.343395 52.536864 20.820405 5.160466 -6.763201 0.000000 0.000000 0.000000 0.000000 0.000000 0.000000 119.375952 65.851131 -77.386748 6.131308 81.393993 -120.263220 -18.717961 -4.697007 -73.229048 11.623866 -10.434573 31.385334 0.000000 0.000000 0.000000 0.000000 0.000000 0.000000 4.046212 -1.310684 -17.193518 -3.453434 -1.345447 -0.200453 2.290373 -12.078844 4.226099 0.000000 0.000000 0.000000 0.538703 0.148669 -17.638946 1.871236 0.372961 0.549022 5.446062 -24.764512 -3.566055 0.000000 0.000000 0.000000
33.277829 77.941327 381.032382 -0.213380 -0.117530 17.809922 0.239102 0.046633 -17.810239 -0.000000 0.000000 0.000000 3.675436 0.133757 0.021968 0.000000 0.000000 0.000000 -104.003728 21.032550 3.710810 -50.664667 32.092217 97.871386 4.144739 -2.434504 41.571324 21.517218 12.246959 -14.014001 0.000000 0.000000 0.000000 0.000000 0.000000 0.000000 120.648685 68.757826 -80.135338 -11.768722 69.943379 -88.496545 -15.740961 -4.967697 -63.148091 5.896811 -12.303402 24.728279 0.000000 0.000000 0.000000 0.000000 0.000000 0.000000 3.850745 -1.372661 -17.376538 -3.499785 -1.629939 -0.159860 1.155136 -7.823118 3.647029 0.000000 0.000000 0.000000 0.239102 0.046633 -17.810239 1.951869 0.537095 0.577078 4.100297 -20.825492 -2.237806 0.000000 0.000000 0.000000
33.174937 78.273735 381.005609 0.008069 0.162411 18.037450 -0.057961 -0.151931 -18.037539 -0.000000 0.000000 0.000000 2.583617 2.008286 0.195566 0.000000 0.000000 0.000000 -108.846547 25.385119 9.068313 -32.955234 27.149051 76.096318 4.369531 -5.652043 37.141582 19.244509 14.384458 -16.866905 0.000000 0.000000 0.000000 0.000000 0.000000 0.000000 125.824137 70.941501 -87.035470 -15.472884 59.305291 -74.795915 -13.799567 -5.303856 -55.324111 3.033027 -11.448039 20.577693 0.000000 0.000000 0.000000 0.000000 0.000000 0.000000 3.729589 -1.609522 -17.582759 -3.536701 -1.858396 -0.122881 -0.426294 -2.034184 3.045075 0.000000 0.000000 0.000000 -0.057961 -0.151931 -18.037539 2.187362 0.423212 0.640229 2.917709 -17.922398 -1.050278 0.000000 0.000000 0.000000
33.040822 78.607374 380.977183 0.144930 0.502685 18.294099 -0.295402 -0.431782 -18.295848 0.716379 0.844964 0.056990 0.909205 2.161670 0.268151 0.000000 0.000000 0.000000 -111.781380 27.992939 11.371229 -22.605147 23.492413 65.159138 3.485936 -4.928576 35.115890 14.675992 12.232437 -20.963104 0.000000 0.000000 0.000000 0.000000 0.000000 0.000000 127.840911 72.738976 -90.818044 -16.591058 52.112337 -68.189857 -12.813884 -6.991711 -50.822599 2.481611 -13.169446 16.353516 0.000000 0.000000 0.000000 0.000000 0.000000 0.000000 3.663544 -1.897079 -17.824992 -3.478930 -1.787852 -0.090656 -1.232767 -0.479886 3.434546 0.000000 0.000000 0.000000 -0.295402 -0.431782 -18.295848 2.364041 0.626409 0.696024 -0.064777 -9.796300 1.024498 0.000000 0.000000 0.000000
32.915836 78.891418 380.953133 0.181148 0.740982 18.462005 0.379885 -0.011163 -18.439532 0.159029 0.274946 0.041362 0.823333 2.483071 0.335852 0.000000 0.000000 0.000000 -111.456730 28.040212 10.968567 -19.215524 22.968388 62.542184 1.964937 -3.265102 34.507155 15.259788 10.598736 -20.164064 0.000000 0.000000 0.000000 0.000000 0.000000 0.000000 129.822280 73.363930 -93.190359 -17.684127 49.166843 -65.977988 -13.034124 -8.960488 -49.758097 3.858731 -15.684536 14.330526 0.000000 0.000000 0.000000 0.000000 0.000000 0.000000 3.624507 -2.070747 -17.997496 -3.376706 -1.798086 -0.052238 -1.308913 -1.196583 3.755602 0.000000 0.000000 0.000000 -0.406497 -0.645472 -18.465466 2.474138 0.722384 0.729664 -1.642318 -5.728311 2.004367 0.000000 0.000000 0.000000
32.796384 79.090615 380.937598 0.165889 0.809286 18.673445 0.278590 -0.103129 -18.653833 0.111485 0.130779 0.033426 1.558242 2.370810 0.306961 0.000000 0.000000 0.000000 -110.001876 26.200108 8.824328 -20.987712 25.266169 66.093234 0.629790 -0.942092 35.546781 15.707047 9.797460 -20.123225 0.000000 0.000000 0.000000 0.000000 0.000000 0.000000 129.532501 72.694123 -92.309922 -18.622789 51.312523 -67.923287 -13.425922 -11.471954 -51.350853 5.930618 -17.904204 13.939877 0.000000 0.000000 0.000000 0.000000 0.000000 0.000000 3.654685 -2.016547 -18.252810 -3.204654 -2.030999 0.027964 -2.074019 0.944175 3.807174 0.000000 0.000000 0.000000 -0.416295 -0.713561 -18.677208 2.536867 0.683944 0.746255 -2.972187 -1.560412 2.043783 0.000000 0.000000 0.000000
32.686526 79.158080 380.984873 0.148106 0.621384 18.775483 -0.340237 -0.540644 -18.777892 -0.000000 0.000000 0.000000 3.214198 1.862409 0.173409 0.000000 0.000000 0.000000 -106.618766 22.390917 5.430296 -29.333340 29.586917 75.999488 1.057345 3.563163 40.287247 18.620373 6.167008 -16.850151 0.000000 0.000000 0.000000 0.000000 0.000000 0.000000 129.517572 70.840849 -90.699705 -19.453161 57.236939 -73.288079 -15.756566 -11.331848 -57.110605 9.314775 -19.382725 15.324461 0.000000 0.000000 0.000000 0.000000 0.000000 0.000000 3.730854 -1.810569 -18.380087 -3.087684 -2.001705 0.053031 -2.930020 3.210225 4.128109 0.000000 0.000000 0.000000 -0.554147 -1.559976 -18.989155 2.605203 1.963902 0.967454 -3.068251 -3.263531 3.419084 0.000000 0.000000 0.000000
32.585311 79.103700 381.096900 0.258917 0.161283 18.652433 0.202203 -0.725090 -18.627109 0.064671 -0.319999 0.032549 3.829698 0.439488 -0.122460 0.000000 0.000000 0.000000 -103.880392 17.644433 1.201759 -43.873453 33.742872 93.005827 3.596939 12.418230 50.602840 18.644509 -0.985327 -12.671009 0.000000 0.000000 0.000000 0.000000 0.000000 0.000000 125.602996 68.523729 -86.104139 -18.806649 67.577522 -83.862327 -18.891621 -12.324014 -66.930720 13.688653 -14.076980 21.825767 0.000000 0.000000 0.000000 0.000000 0.000000 0.000000 3.725600 -1.292650 -18.302541 -3.029472 -1.824453 0.045358 -2.425312 0.878295 4.422684 0.000000 0.000000 0.000000 -0.351941 -1.354285 -18.890968 2.461899 1.975289 1.009286 -2.023010 -7.040053 4.065040 0.000000 0.000000 0.000000
32.486367 79.007701 381.238712 0.492932 -0.464949 18.464838 0.229292 -1.107991 -18.425978 0.043181 -0.491896 0.044436 4.550973 -0.816014 -0.410857 0.000000 0.000000 0.000000 -100.751349 12.113205 -2.686161 -62.069827 34.855161 114.723877 10.712492 25.812731 67.686248 4.671011 -8.879133 -20.986653 0.000000 0.000000 0.000000 0.000000 0.000000 0.000000 122.528700 65.657976 -81.839695 -11.370985 80.204386 -105.155993 -23.546163 -12.302589 -80.793039 17.171390 -4.802076 31.621588 0.000000 0.000000 0.000000 0.000000 0.000000 0.000000 3.792510 -0.656257 -18.144567 -3.199525 -1.652969 0.005949 -2.364196 0.490099 4.690861 0.000000 0.000000 0.000000 -0.156566 -0.752118 -18.685959 2.176694 1.967723 0.983772 -1.607621 -8.628792 5.033486 0.000000 0.000000 0.000000
